<svg width="120" height="41" viewBox="0 0 120 41" fill="none" xmlns="http://www.w3.org/2000/svg">
<g clip-path="url(#clip0_5737_42480)">
<path d="M110.444 6.93298e-05H9.56145C9.19372 6.93298e-05 8.8304 6.93298e-05 8.46364 0.00207494C8.15663 0.00408056 7.85207 0.00990687 7.54211 0.0148106C6.86874 0.0227346 6.19695 0.0819749 5.53259 0.192017C4.86915 0.304454 4.2265 0.516431 3.62637 0.820777C3.02697 1.1277 2.47929 1.52651 2.00318 2.00275C1.52457 2.47764 1.12561 3.02656 0.82165 3.62839C0.516847 4.22902 0.305496 4.87265 0.194896 5.53705C0.083244 6.20061 0.0231632 6.87183 0.0151925 7.54467C0.00588648 7.85213 0.00490373 8.16061 0 8.46811V31.6473C0.00490373 31.9586 0.00588648 32.2603 0.0151925 32.5718C0.0231657 33.2446 0.0832464 33.9157 0.194896 34.5793C0.30519 35.2441 0.516554 35.8881 0.82165 36.4889C1.12548 37.0888 1.52449 37.6355 2.00318 38.1077C2.47748 38.5861 3.02552 38.9852 3.62637 39.2898C4.2265 39.5949 4.86908 39.8082 5.53259 39.9223C6.19707 40.0315 6.86879 40.0908 7.54211 40.0996C7.85207 40.1064 8.15663 40.1104 8.46364 40.1104C8.83039 40.1124 9.19374 40.1124 9.56145 40.1124H110.444C110.804 40.1124 111.171 40.1124 111.531 40.1104C111.837 40.1104 112.15 40.1064 112.455 40.0996C113.128 40.0912 113.798 40.032 114.461 39.9223C115.127 39.8074 115.772 39.5942 116.375 39.2898C116.975 38.985 117.522 38.5859 117.996 38.1077C118.474 37.6336 118.874 37.0873 119.181 36.4889C119.484 35.8876 119.693 35.2437 119.802 34.5793C119.914 33.9156 119.976 33.2446 119.988 32.5718C119.992 32.2603 119.992 31.9586 119.992 31.6473C120 31.2829 120 30.9206 120 30.5504V9.56297C120 9.19573 120 8.83143 119.992 8.46811C119.992 8.16061 119.992 7.85213 119.988 7.54463C119.976 6.87173 119.914 6.20066 119.802 5.53701C119.693 4.87299 119.484 4.22941 119.181 3.62835C118.562 2.42205 117.581 1.44013 116.375 0.820687C115.772 0.517084 115.127 0.305164 114.461 0.191926C113.798 0.0813998 113.128 0.0221389 112.455 0.0146702C112.15 0.0097765 111.837 0.00390005 111.531 0.00194458C111.171 -6.10352e-05 110.804 -6.10352e-05 110.444 -6.10352e-05V6.93298e-05Z" fill="#A6A6A6"/>
<path d="M8.46856 39.2349C8.16303 39.2349 7.86487 39.231 7.56174 39.2242C6.93376 39.216 6.30725 39.1613 5.68735 39.0606C5.10932 38.961 4.54937 38.7759 4.02596 38.5112C3.50735 38.2486 3.03433 37.9044 2.62504 37.4917C2.20981 37.0838 1.86412 36.6108 1.60166 36.0913C1.33631 35.5684 1.15267 35.0079 1.05714 34.4294C0.953972 33.8078 0.898156 33.1792 0.890169 32.5492C0.883812 32.3377 0.875488 31.6335 0.875488 31.6335V8.46809C0.875488 8.46809 0.884353 7.77474 0.89022 7.57104C0.897867 6.94196 0.953358 6.31438 1.05621 5.69372C1.15192 5.11361 1.3357 4.55154 1.6012 4.02695C1.8627 3.50781 2.20647 3.0344 2.61919 2.62507C3.03145 2.21186 3.50597 1.86587 4.02547 1.59973C4.54767 1.33588 5.10657 1.152 5.68343 1.05427C6.30537 0.952549 6.93405 0.897555 7.5642 0.889747L8.46906 0.877502H111.526L112.442 0.890238C113.066 0.897658 113.689 0.952161 114.305 1.05328C114.888 1.15225 115.453 1.33741 115.981 1.60267C117.022 2.13902 117.869 2.98757 118.403 4.0294C118.664 4.55036 118.845 5.10785 118.939 5.68294C119.044 6.3087 119.102 6.94122 119.114 7.57545C119.117 7.85945 119.117 8.1645 119.117 8.46809C119.125 8.84414 119.125 9.20208 119.125 9.56295V30.5504C119.125 30.9147 119.125 31.2702 119.117 31.6286C119.117 31.9547 119.117 32.2534 119.113 32.5609C119.101 33.1838 119.044 33.805 118.941 34.4196C118.848 35.0023 118.665 35.5671 118.4 36.0943C118.136 36.6081 117.792 37.0771 117.381 37.4839C116.972 37.8988 116.498 38.2451 115.978 38.5093C115.451 38.776 114.887 38.9619 114.305 39.0606C113.686 39.1618 113.059 39.2165 112.431 39.2242C112.137 39.231 111.83 39.2349 111.531 39.2349L110.444 39.2369L8.46856 39.2349Z" fill="black"/>
<path d="M24.8386 20.3576C24.8493 19.5206 25.0717 18.7 25.4848 17.972C25.898 17.244 26.4886 16.6323 27.2017 16.1939C26.7487 15.547 26.1511 15.0145 25.4563 14.6389C24.7616 14.2633 23.9888 14.0549 23.1994 14.0302C21.5154 13.8534 19.8829 15.0378 19.0248 15.0378C18.1501 15.0378 16.8289 14.0477 15.4061 14.077C14.4859 14.1067 13.589 14.3743 12.803 14.8537C12.0169 15.3331 11.3684 16.008 10.9207 16.8125C8.98124 20.1704 10.4279 25.1052 12.2857 27.8194C13.2152 29.1485 14.3015 30.6331 15.7229 30.5805C17.1139 30.5228 17.6334 29.6935 19.3124 29.6935C20.9758 29.6935 21.4632 30.5805 22.9135 30.547C24.406 30.5228 25.3464 29.212 26.2433 27.8704C26.9111 26.9233 27.4251 25.8767 27.766 24.7692C26.8988 24.4024 26.1589 23.7885 25.6383 23.004C25.1177 22.2195 24.8396 21.2991 24.8386 20.3576Z" fill="white"/>
<path d="M22.0995 12.2452C22.9133 11.2682 23.3142 10.0125 23.2171 8.74475C21.9738 8.87534 20.8253 9.46956 20.0005 10.409C19.5973 10.868 19.2884 11.4019 19.0916 11.9803C18.8948 12.5587 18.8139 13.1702 18.8536 13.7798C19.4755 13.7862 20.0907 13.6515 20.653 13.3856C21.2152 13.1198 21.7098 12.7299 22.0995 12.2452Z" fill="white"/>
<path d="M42.421 27.2158H37.6743L36.5344 30.5816H34.5239L39.0199 18.1288H41.1087L45.6047 30.5816H43.5599L42.421 27.2158ZM38.1659 25.6626H41.9284L40.0736 20.2H40.0217L38.1659 25.6626Z" fill="white"/>
<path d="M55.3146 26.0427C55.3146 28.8641 53.8045 30.6767 51.5256 30.6767C50.9484 30.7069 50.3743 30.574 49.869 30.293C49.3638 30.0121 48.948 29.5946 48.669 29.0883H48.6259V33.5853H46.7623V21.5026H48.5662V23.0127H48.6005C48.8922 22.5088 49.3151 22.0935 49.8242 21.8108C50.3332 21.5282 50.9094 21.3889 51.4914 21.4076C53.7956 21.4076 55.3146 23.2291 55.3146 26.0427ZM53.399 26.0427C53.399 24.2045 52.4491 22.9961 50.9997 22.9961C49.5758 22.9961 48.6181 24.23 48.6181 26.0427C48.6181 27.872 49.5758 29.0971 50.9997 29.0971C52.4491 29.0971 53.399 27.8975 53.399 26.0427Z" fill="white"/>
<path d="M65.3074 26.0427C65.3074 28.864 63.7973 30.6767 61.5184 30.6767C60.9412 30.7069 60.3671 30.5739 59.8618 30.293C59.3566 30.0121 58.9408 29.5946 58.6618 29.0883H58.6187V33.5852H56.7551V21.5026H58.5589V23.0127H58.5932C58.885 22.5088 59.3079 22.0935 59.817 21.8108C60.326 21.5282 60.9022 21.3888 61.4841 21.4076C63.7885 21.4076 65.3074 23.2291 65.3074 26.0427ZM63.3918 26.0427C63.3918 24.2045 62.4419 22.996 60.9925 22.996C59.5686 22.996 58.6109 24.23 58.6109 26.0427C58.6109 27.872 59.5686 29.0971 60.9925 29.0971C62.4419 29.0971 63.3918 27.8975 63.3918 26.0427H63.3918Z" fill="white"/>
<path d="M71.9119 27.112C72.05 28.3469 73.2496 29.1577 74.8889 29.1577C76.4598 29.1577 77.5899 28.3469 77.5899 27.2334C77.5899 26.2668 76.9083 25.6881 75.2944 25.2915L73.6805 24.9027C71.3938 24.3503 70.3322 23.2809 70.3322 21.5456C70.3322 19.397 72.2047 17.9212 74.8635 17.9212C77.4949 17.9212 79.2988 19.397 79.3595 21.5456H77.4782C77.3656 20.3029 76.3383 19.5527 74.837 19.5527C73.3358 19.5527 72.3085 20.3117 72.3085 21.4163C72.3085 22.2967 72.9646 22.8148 74.5697 23.2114L75.9417 23.5483C78.4967 24.1525 79.5582 25.1788 79.5582 27.0003C79.5582 29.3301 77.7025 30.7892 74.7508 30.7892C71.9892 30.7892 70.1246 29.3643 70.0042 27.1119L71.9119 27.112Z" fill="white"/>
<path d="M83.5801 19.3539V21.5025H85.3066V22.9783H83.5801V27.9836C83.5801 28.7611 83.9258 29.1235 84.6848 29.1235C84.8897 29.1199 85.0943 29.1055 85.2978 29.0804V30.5474C84.9566 30.6111 84.6097 30.64 84.2627 30.6335C82.4245 30.6335 81.7077 29.9431 81.7077 28.1823V22.9783H80.3876V21.5025H81.7076V19.3539H83.5801Z" fill="white"/>
<path d="M86.3066 26.0426C86.3066 23.1859 87.989 21.3909 90.6126 21.3909C93.2449 21.3909 94.9196 23.1859 94.9196 26.0426C94.9196 28.907 93.2538 30.6943 90.6126 30.6943C87.9723 30.6943 86.3066 28.907 86.3066 26.0426ZM93.0207 26.0426C93.0207 24.083 92.1227 22.9264 90.6126 22.9264C89.1025 22.9264 88.2054 24.0918 88.2054 26.0426C88.2054 28.01 89.1025 29.1577 90.6126 29.1577C92.1227 29.1577 93.0206 28.01 93.0206 26.0426H93.0207Z" fill="white"/>
<path d="M96.4561 21.5025H98.2335V23.0479H98.2766C98.3969 22.5652 98.6796 22.1387 99.0773 21.84C99.475 21.5413 99.9634 21.3885 100.46 21.4075C100.675 21.4068 100.889 21.4301 101.099 21.4771V23.2202C100.828 23.1374 100.545 23.0993 100.262 23.1076C99.9909 23.0966 99.721 23.1444 99.4704 23.2475C99.2199 23.3507 98.9946 23.5069 98.8102 23.7053C98.6257 23.9038 98.4863 24.1398 98.4016 24.3972C98.317 24.6546 98.289 24.9272 98.3197 25.1964V30.5816H96.4561L96.4561 21.5025Z" fill="white"/>
<path d="M109.691 27.915C109.441 29.5632 107.836 30.6943 105.782 30.6943C103.141 30.6943 101.501 28.9246 101.501 26.0857C101.501 23.2378 103.15 21.3909 105.704 21.3909C108.216 21.3909 109.795 23.1164 109.795 25.8692V26.5077H103.383V26.6203C103.353 26.9545 103.395 27.2911 103.505 27.6078C103.616 27.9245 103.793 28.2141 104.024 28.4574C104.255 28.7006 104.535 28.8919 104.845 29.0186C105.156 29.1452 105.49 29.2043 105.825 29.192C106.265 29.2333 106.707 29.1313 107.085 28.9012C107.463 28.6711 107.756 28.3252 107.922 27.915L109.691 27.915ZM103.392 25.2053H107.931C107.947 24.9048 107.902 24.6042 107.797 24.3222C107.692 24.0402 107.53 23.7829 107.321 23.5665C107.111 23.3502 106.86 23.1794 106.582 23.0648C106.303 22.9503 106.004 22.8945 105.704 22.901C105.4 22.8991 105.099 22.9575 104.819 23.0725C104.538 23.1876 104.282 23.3571 104.067 23.5714C103.853 23.7856 103.682 24.0403 103.566 24.3207C103.45 24.6011 103.391 24.9018 103.392 25.2053V25.2053Z" fill="white"/>
<path d="M37.9324 8.75557C38.3231 8.72753 38.7152 8.78656 39.0803 8.92839C39.4455 9.07022 39.7746 9.29132 40.0439 9.57574C40.3133 9.86016 40.5161 10.2008 40.6379 10.5731C40.7596 10.9454 40.7972 11.3401 40.7479 11.7287C40.7479 13.6403 39.7148 14.7392 37.9324 14.7392H35.7711V8.75557H37.9324ZM36.7005 13.893H37.8286C38.1078 13.9096 38.3872 13.8639 38.6465 13.759C38.9057 13.654 39.1384 13.4926 39.3274 13.2865C39.5164 13.0804 39.6571 12.8347 39.7392 12.5673C39.8213 12.2999 39.8427 12.0176 39.8019 11.7409C39.8397 11.4653 39.8161 11.1848 39.7328 10.9194C39.6494 10.654 39.5084 10.4103 39.3198 10.2058C39.1312 10.0013 38.8997 9.841 38.6419 9.73647C38.3841 9.63194 38.1064 9.58573 37.8286 9.60115H36.7005V13.893Z" fill="white"/>
<path d="M45.8405 13.5198C45.7194 13.9325 45.4571 14.2895 45.0994 14.5283C44.7417 14.7671 44.3114 14.8726 43.8839 14.8262C43.5864 14.834 43.2907 14.7771 43.0175 14.6592C42.7442 14.5414 42.4998 14.3654 42.3014 14.1437C42.1029 13.9219 41.9551 13.6596 41.8681 13.375C41.7812 13.0904 41.7573 12.7903 41.7979 12.4955C41.7583 12.1997 41.7827 11.899 41.8694 11.6135C41.9562 11.328 42.1032 11.0645 42.3006 10.8408C42.4981 10.6171 42.7412 10.4384 43.0137 10.3169C43.2862 10.1953 43.5816 10.1338 43.8799 10.1363C45.1364 10.1363 45.8944 10.9947 45.8944 12.4127V12.7236H42.7058V12.7736C42.6919 12.9393 42.7127 13.1061 42.767 13.2633C42.8212 13.4205 42.9078 13.5646 43.021 13.6864C43.1342 13.8082 43.2716 13.905 43.4245 13.9706C43.5773 14.0361 43.7421 14.0691 43.9084 14.0672C44.1216 14.0928 44.3375 14.0544 44.5288 13.9569C44.7201 13.8595 44.8781 13.7073 44.9827 13.5198L45.8405 13.5198ZM42.7057 12.0646H44.9865C44.9978 11.913 44.9772 11.7608 44.9261 11.6177C44.875 11.4745 44.7945 11.3437 44.6898 11.2335C44.5851 11.1234 44.4586 11.0363 44.3182 10.978C44.1779 10.9196 44.0269 10.8913 43.875 10.8948C43.7209 10.8929 43.5679 10.9218 43.4252 10.9799C43.2824 11.038 43.1527 11.1241 43.0438 11.2331C42.9348 11.3422 42.8488 11.4719 42.7907 11.6147C42.7327 11.7575 42.7038 11.9104 42.7058 12.0646H42.7057Z" fill="white"/>
<path d="M48.741 10.1364C49.7566 10.1364 50.4205 10.6089 50.5077 11.405H49.6527C49.5705 11.0735 49.2463 10.862 48.741 10.862C48.2435 10.862 47.8656 11.098 47.8656 11.4506C47.8656 11.7203 48.0937 11.8903 48.5834 12.0024L49.3335 12.1762C50.1923 12.3755 50.5948 12.7447 50.5948 13.4082C50.5948 14.2583 49.8026 14.8262 48.7244 14.8262C47.6501 14.8262 46.9499 14.341 46.8705 13.5409H47.7627C47.8396 13.7313 47.9782 13.8904 48.1563 13.9926C48.3344 14.0948 48.5417 14.1342 48.7449 14.1045C49.3002 14.1045 49.6949 13.8558 49.6949 13.4949C49.6949 13.2256 49.4833 13.0512 49.0309 12.9435L48.2435 12.7609C47.3847 12.5577 46.9871 12.1723 46.9871 11.5005C46.9871 10.6999 47.7206 10.1364 48.741 10.1364Z" fill="white"/>
<path d="M54.7519 11.6994C54.6951 11.4652 54.5563 11.2591 54.3606 11.1185C54.165 10.9778 53.9255 10.9119 53.6854 10.9326C52.9392 10.9326 52.4828 11.5045 52.4828 12.4666C52.4828 13.4455 52.9431 14.0301 53.6854 14.0301C53.9231 14.0576 54.1627 13.9974 54.3591 13.8607C54.5555 13.724 54.6951 13.5203 54.7519 13.2878H55.6186C55.5612 13.745 55.3276 14.1618 54.9673 14.4492C54.6071 14.7366 54.1489 14.8719 53.6903 14.8263C53.3884 14.8358 53.088 14.7793 52.8102 14.6606C52.5324 14.5419 52.2839 14.364 52.082 14.1392C51.8802 13.9145 51.7299 13.6484 51.6416 13.3595C51.5534 13.0706 51.5293 12.7659 51.5711 12.4667C51.5314 12.1697 51.557 11.8676 51.6461 11.5816C51.7352 11.2955 51.8857 11.0324 52.087 10.8105C52.2884 10.5886 52.5357 10.4133 52.8118 10.2969C53.0878 10.1805 53.386 10.1257 53.6854 10.1364C54.1477 10.0938 54.6084 10.2333 54.9695 10.5252C55.3305 10.8171 55.5634 11.2384 55.6186 11.6994L54.7519 11.6994Z" fill="white"/>
<path d="M56.5029 13.4621C56.5029 12.6493 57.1081 12.1807 58.1824 12.1141L59.4056 12.0436V11.6538C59.4056 11.1769 59.0903 10.9076 58.4811 10.9076C57.9836 10.9076 57.6389 11.0902 57.54 11.4095H56.6772C56.7683 10.6338 57.4979 10.1364 58.5223 10.1364C59.6543 10.1364 60.2928 10.6999 60.2928 11.6538V14.7391H59.435V14.1045H59.3645C59.2213 14.3321 59.0204 14.5177 58.7821 14.6423C58.5438 14.7668 58.2767 14.8259 58.0081 14.8135C57.8186 14.8332 57.627 14.813 57.4457 14.7541C57.2644 14.6953 57.0975 14.5991 56.9557 14.4717C56.8139 14.3444 56.7003 14.1888 56.6223 14.0149C56.5444 13.841 56.5037 13.6527 56.5029 13.4621ZM59.4056 13.0762V12.6987L58.3029 12.7692C57.681 12.8108 57.399 13.0224 57.399 13.4204C57.399 13.8269 57.7515 14.0634 58.2363 14.0634C58.3784 14.0777 58.5219 14.0634 58.6582 14.0212C58.7946 13.979 58.9211 13.9098 59.0302 13.8177C59.1393 13.7256 59.2288 13.6125 59.2932 13.4851C59.3577 13.3577 59.3959 13.2187 59.4056 13.0762ZM57.9876 9.46847L59.0286 8.04211H60.0735L58.9081 9.46847H57.9876Z" fill="white"/>
<path d="M61.6884 10.2235H62.5462V10.9159H62.6128C62.7089 10.6755 62.8786 10.4718 63.0976 10.3339C63.3167 10.1961 63.5738 10.1312 63.8321 10.1486C63.9655 10.1468 64.0988 10.1593 64.2296 10.1858V11.0653C64.0661 11.0303 63.8994 11.0123 63.7322 11.0114C63.5852 10.9982 63.4371 11.0159 63.2973 11.0633C63.1576 11.1108 63.0293 11.187 62.9208 11.2869C62.8122 11.3869 62.7258 11.5085 62.667 11.6439C62.6082 11.7792 62.5784 11.9254 62.5795 12.073V14.7391H61.6884L61.6884 10.2235Z" fill="white"/>
<path d="M65.0483 15.191H65.9606C66.036 15.5186 66.413 15.7301 67.0143 15.7301C67.7566 15.7301 68.1963 15.3776 68.1963 14.7807V13.914H68.1297C67.99 14.1566 67.7858 14.3559 67.5399 14.4897C67.294 14.6236 67.0158 14.6868 66.7362 14.6725C65.5835 14.6725 64.8701 13.7813 64.8701 12.4294C64.8701 11.0525 65.5914 10.1486 66.745 10.1486C67.0316 10.1386 67.3155 10.2076 67.5656 10.348C67.8156 10.4884 68.0223 10.6949 68.163 10.9448H68.2335V10.2235H69.0875V14.7763C69.0875 15.8089 68.2786 16.4641 67.0016 16.4641C65.8734 16.4642 65.1434 15.9583 65.0483 15.191ZM68.213 12.425C68.213 11.5255 67.7478 10.9492 66.9888 10.9492C66.222 10.9492 65.7911 11.5255 65.7911 12.425C65.7911 13.325 66.222 13.9013 66.9888 13.9013C67.7527 13.9013 68.213 13.3294 68.213 12.425H68.213Z" fill="white"/>
<path d="M70.2499 13.4621C70.2499 12.6492 70.8552 12.1806 71.9294 12.114L73.1526 12.0435V11.6538C73.1526 11.1769 72.8373 10.9076 72.2281 10.9076C71.7307 10.9076 71.3859 11.0902 71.287 11.4094H70.4243C70.5153 10.6338 71.2449 10.1364 72.2693 10.1364C73.4013 10.1364 74.0399 10.6999 74.0399 11.6538V14.7391H73.182V14.1045H73.1115C72.9684 14.3321 72.7674 14.5177 72.5291 14.6422C72.2908 14.7668 72.0237 14.8259 71.7551 14.8135C71.5656 14.8332 71.374 14.813 71.1927 14.7541C71.0114 14.6952 70.8445 14.599 70.7027 14.4717C70.5609 14.3444 70.4473 14.1888 70.3693 14.0149C70.2914 13.841 70.2507 13.6526 70.2499 13.4621ZM73.1526 13.0762V12.6987L72.0499 12.7692C71.428 12.8108 71.146 13.0224 71.146 13.4204C71.146 13.8268 71.4985 14.0633 71.9833 14.0633C72.1254 14.0777 72.2689 14.0634 72.4053 14.0212C72.5416 13.979 72.6681 13.9098 72.7772 13.8177C72.8863 13.7256 72.9758 13.6125 73.0403 13.4851C73.1047 13.3577 73.1429 13.2187 73.1526 13.0762Z" fill="white"/>
<path d="M75.4765 8.46075H76.3677V14.7391H75.4765V8.46075Z" fill="white"/>
<path d="M77.6063 12.4793C77.5779 12.1825 77.6119 11.8831 77.706 11.6003C77.8001 11.3174 77.9523 11.0573 78.1528 10.8367C78.3533 10.6161 78.5977 10.4399 78.8703 10.3193C79.1429 10.1987 79.4377 10.1364 79.7358 10.1364C80.0339 10.1364 80.3287 10.1987 80.6014 10.3193C80.874 10.4399 81.1184 10.6161 81.3189 10.8367C81.5194 11.0573 81.6715 11.3174 81.7657 11.6003C81.8598 11.8831 81.8937 12.1825 81.8653 12.4793C81.8942 12.7763 81.8607 13.0762 81.7668 13.3595C81.673 13.6428 81.5209 13.9033 81.3203 14.1244C81.1198 14.3454 80.8752 14.522 80.6023 14.6429C80.3294 14.7638 80.0343 14.8262 79.7358 14.8262C79.4374 14.8262 79.1422 14.7638 78.8693 14.6429C78.5964 14.522 78.3518 14.3454 78.1513 14.1244C77.9507 13.9033 77.7986 13.6428 77.7048 13.3595C77.6109 13.0762 77.5774 12.7763 77.6063 12.4793ZM80.9487 12.4793C80.9487 11.5005 80.509 10.9281 79.7373 10.9281C78.9627 10.9281 78.5269 11.5005 78.5269 12.4793C78.5269 13.466 78.9627 14.0339 79.7373 14.0339C80.509 14.0339 80.9487 13.462 80.9487 12.4793H80.9487Z" fill="white"/>
<path d="M89.3296 13.5198C89.2086 13.9325 88.9462 14.2895 88.5885 14.5283C88.2309 14.7671 87.8006 14.8726 87.373 14.8262C87.0755 14.834 86.7799 14.7771 86.5066 14.6592C86.2333 14.5414 85.989 14.3654 85.7905 14.1437C85.592 13.9219 85.4442 13.6596 85.3573 13.375C85.2704 13.0904 85.2464 12.7903 85.2871 12.4955C85.2475 12.1997 85.2718 11.899 85.3586 11.6135C85.4453 11.328 85.5924 11.0645 85.7898 10.8408C85.9872 10.6171 86.2304 10.4384 86.5028 10.3169C86.7753 10.1953 87.0707 10.1338 87.3691 10.1363C88.6255 10.1363 89.3835 10.9947 89.3835 12.4127V12.7236H86.1949V12.7736C86.1809 12.9393 86.2018 13.1061 86.256 13.2633C86.3103 13.4205 86.3968 13.5646 86.5101 13.6864C86.6233 13.8082 86.7607 13.905 86.9135 13.9706C87.0664 14.0361 87.2312 14.0691 87.3975 14.0672C87.6106 14.0928 87.8266 14.0544 88.0179 13.9569C88.2092 13.8595 88.3672 13.7073 88.4718 13.5198L89.3296 13.5198ZM86.1949 12.0646H88.4756C88.4869 11.913 88.4663 11.7608 88.4152 11.6177C88.3641 11.4745 88.2836 11.3437 88.1789 11.2335C88.0742 11.1234 87.9477 11.0363 87.8074 10.978C87.667 10.9196 87.5161 10.8913 87.3641 10.8948C87.21 10.8929 87.057 10.9218 86.9143 10.9799C86.7715 11.038 86.6418 11.1241 86.5329 11.2331C86.4239 11.3422 86.3378 11.4719 86.2798 11.6147C86.2218 11.7575 86.1929 11.9104 86.1949 12.0646H86.1949Z" fill="white"/>
<path d="M90.5803 10.2236H91.4381V10.9409H91.5047C91.6177 10.6833 91.8082 10.4673 92.0498 10.3231C92.2913 10.1789 92.5718 10.1136 92.8522 10.1364C93.072 10.1199 93.2926 10.153 93.4978 10.2333C93.7029 10.3137 93.8874 10.4391 94.0375 10.6004C94.1876 10.7617 94.2995 10.9547 94.3649 11.1651C94.4303 11.3755 94.4475 11.5979 94.4152 11.8159V14.7391H93.524V12.0397C93.524 11.314 93.2087 10.9532 92.5496 10.9532C92.4005 10.9462 92.2516 10.9716 92.1131 11.0276C91.9747 11.0836 91.85 11.1688 91.7476 11.2775C91.6451 11.3862 91.5674 11.5158 91.5198 11.6573C91.4721 11.7988 91.4556 11.949 91.4714 12.0975V14.7391H90.5803V10.2236Z" fill="white"/>
<path d="M102.062 13.5198C101.941 13.9325 101.678 14.2895 101.321 14.5283C100.963 14.7671 100.533 14.8726 100.105 14.8262C99.8075 14.834 99.5119 14.7771 99.2386 14.6592C98.9653 14.5414 98.721 14.3654 98.5225 14.1437C98.324 13.9219 98.1762 13.6596 98.0893 13.375C98.0023 13.0904 97.9784 12.7903 98.0191 12.4955C97.9795 12.1997 98.0038 11.899 98.0906 11.6135C98.1773 11.328 98.3244 11.0645 98.5218 10.8408C98.7192 10.6171 98.9624 10.4384 99.2348 10.3169C99.5073 10.1953 99.8027 10.1338 100.101 10.1363C101.358 10.1363 102.116 10.9947 102.116 12.4127V12.7236H98.9269V12.7736C98.9129 12.9393 98.9338 13.1061 98.988 13.2633C99.0423 13.4205 99.1288 13.5646 99.2421 13.6864C99.3553 13.8082 99.4927 13.905 99.6455 13.9706C99.7983 14.0361 99.9632 14.0691 100.129 14.0672C100.343 14.0928 100.559 14.0544 100.75 13.9569C100.941 13.8595 101.099 13.7073 101.204 13.5198L102.062 13.5198ZM98.9269 12.0646H101.208C101.219 11.913 101.198 11.7608 101.147 11.6177C101.096 11.4745 101.016 11.3437 100.911 11.2335C100.806 11.1234 100.68 11.0363 100.539 10.978C100.399 10.9196 100.248 10.8913 100.096 10.8948C99.942 10.8929 99.7891 10.9218 99.6463 10.9799C99.5035 11.038 99.3738 11.1241 99.2649 11.2331C99.1559 11.3421 99.0698 11.4719 99.0118 11.6147C98.9538 11.7575 98.9249 11.9104 98.9269 12.0646H98.9269Z" fill="white"/>
<path d="M103.353 8.46075H104.244V14.7391H103.353V8.46075Z" fill="white"/>
</g>
<defs>
<clipPath id="clip0_5737_42480">
<rect width="120" height="40.1123" fill="white"/>
</clipPath>
</defs>
</svg>
