<svg width="120" height="41" viewBox="0 0 120 41" fill="none" xmlns="http://www.w3.org/2000/svg">
<path d="M110.444 0.000130365H9.56145C9.19372 0.000130365 8.8304 0.000130365 8.46364 0.00213598C8.15663 0.00414159 7.85207 0.0099679 7.54211 0.0148716C6.86874 0.0227956 6.19695 0.0820359 5.53259 0.192078C4.86915 0.304515 4.2265 0.516492 3.62637 0.820838C3.02697 1.12776 2.47929 1.52657 2.00318 2.00281C1.52457 2.4777 1.12561 3.02662 0.82165 3.62845C0.516847 4.22908 0.305496 4.87271 0.194896 5.53711C0.083244 6.20067 0.0231632 6.87189 0.0151925 7.54473C0.00588648 7.85219 0.00490373 8.16067 0 8.46817V31.6473C0.00490373 31.9587 0.00588648 32.2603 0.0151925 32.5718C0.0231657 33.2446 0.0832464 33.9158 0.194896 34.5793C0.30519 35.2441 0.516554 35.8881 0.82165 36.489C1.12548 37.0889 1.52449 37.6356 2.00318 38.1078C2.47748 38.5862 3.02552 38.9852 3.62637 39.2898C4.2265 39.595 4.86908 39.8082 5.53259 39.9224C6.19707 40.0316 6.86879 40.0908 7.54211 40.0997C7.85207 40.1065 8.15663 40.1104 8.46364 40.1104C8.83039 40.1124 9.19374 40.1124 9.56145 40.1124H110.444C110.804 40.1124 111.171 40.1124 111.531 40.1104C111.837 40.1104 112.15 40.1065 112.455 40.0997C113.128 40.0913 113.798 40.032 114.461 39.9224C115.127 39.8074 115.772 39.5942 116.375 39.2898C116.975 38.9851 117.522 38.586 117.996 38.1078C118.474 37.6337 118.874 37.0874 119.181 36.489C119.484 35.8877 119.693 35.2437 119.802 34.5793C119.914 33.9157 119.976 33.2447 119.988 32.5718C119.992 32.2603 119.992 31.9587 119.992 31.6473C120 31.283 120 30.9207 120 30.5505V9.56303C120 9.19579 120 8.83149 119.992 8.46817C119.992 8.16067 119.992 7.85219 119.988 7.54469C119.976 6.87179 119.914 6.20072 119.802 5.53707C119.693 4.87305 119.484 4.22947 119.181 3.62841C118.562 2.42211 117.581 1.44019 116.375 0.820748C115.772 0.517145 115.127 0.305225 114.461 0.191987C113.798 0.0814608 113.128 0.0221999 112.455 0.0147312C112.15 0.00983754 111.837 0.00396109 111.531 0.00200561C111.171 0 110.804 0 110.444 0V0.000130365Z" fill="#A6A6A6"/>
<path d="M8.46856 39.2349C8.16303 39.2349 7.86487 39.231 7.56174 39.2242C6.93376 39.216 6.30725 39.1614 5.68735 39.0607C5.10932 38.9611 4.54937 38.7759 4.02596 38.5112C3.50735 38.2487 3.03433 37.9045 2.62504 37.4918C2.20981 37.0839 1.86412 36.6108 1.60166 36.0913C1.33631 35.5685 1.15267 35.008 1.05714 34.4295C0.953972 33.8079 0.898156 33.1793 0.890169 32.5492C0.883812 32.3377 0.875488 31.6336 0.875488 31.6336V8.46815C0.875488 8.46815 0.884353 7.7748 0.89022 7.5711C0.897867 6.94202 0.953358 6.31444 1.05621 5.69378C1.15192 5.11367 1.3357 4.5516 1.6012 4.02701C1.8627 3.50787 2.20647 3.03446 2.61919 2.62514C3.03145 2.21192 3.50597 1.86593 4.02547 1.5998C4.54767 1.33594 5.10657 1.15206 5.68343 1.05433C6.30537 0.95261 6.93405 0.897616 7.5642 0.889808L8.46906 0.877563H111.526L112.442 0.890299C113.066 0.897719 113.689 0.952222 114.305 1.05335C114.888 1.15231 115.453 1.33747 115.981 1.60273C117.022 2.13908 117.869 2.98763 118.403 4.02946C118.664 4.55042 118.845 5.10791 118.939 5.68301C119.044 6.30876 119.102 6.94128 119.114 7.57551C119.117 7.85951 119.117 8.16456 119.117 8.46815C119.125 8.8442 119.125 9.20214 119.125 9.56301V30.5504C119.125 30.9147 119.125 31.2702 119.117 31.6286C119.117 31.9548 119.117 32.2535 119.113 32.561C119.101 33.1839 119.044 33.8051 118.941 34.4197C118.848 35.0024 118.665 35.5672 118.4 36.0943C118.136 36.6082 117.792 37.0772 117.381 37.4839C116.972 37.8989 116.498 38.2451 115.978 38.5093C115.451 38.7761 114.887 38.9619 114.305 39.0607C113.686 39.1619 113.059 39.2166 112.431 39.2242C112.137 39.231 111.83 39.2349 111.531 39.2349L110.444 39.2369L8.46856 39.2349Z" fill="black"/>
<path d="M94.7352 28.6988H96.3938V17.5869H94.7352V28.6988ZM109.675 21.5895L107.773 26.4073H107.717L105.743 21.5895H103.956L106.916 28.3228L105.228 32.0686H106.958L111.519 21.5895H109.675ZM100.268 27.4366C99.7245 27.4366 98.9671 27.1646 98.9671 26.4925C98.9671 25.6349 99.9102 25.3068 100.725 25.3068C101.454 25.3068 101.797 25.4642 102.241 25.6783C102.112 26.7078 101.226 27.4366 100.268 27.4366ZM100.468 21.3469C99.2675 21.3469 98.0231 21.8757 97.5084 23.0473L98.9812 23.6625C99.2959 23.0473 99.8818 22.8472 100.497 22.8472C101.355 22.8472 102.227 23.362 102.241 24.2766V24.3912C101.94 24.2198 101.297 23.9629 100.511 23.9629C98.9244 23.9629 97.3085 24.8349 97.3085 26.4641C97.3085 27.9513 98.6097 28.9085 100.068 28.9085C101.183 28.9085 101.797 28.4091 102.184 27.8224H102.241V28.6802H103.842V24.4197C103.842 22.4473 102.37 21.3469 100.468 21.3469ZM90.2177 22.9423H87.8586V19.1326H90.2177C91.4578 19.1326 92.1617 20.1602 92.1617 21.0376C92.1617 21.8989 91.4578 22.9423 90.2177 22.9423ZM90.1752 17.5869H86.2009V28.6988H87.8586V24.4891H90.1752C92.0132 24.4891 93.8205 23.1574 93.8205 21.0376C93.8205 18.9175 92.0132 17.5869 90.1752 17.5869ZM68.5031 27.4385C67.3573 27.4385 66.3983 26.4793 66.3983 25.162C66.3983 23.8304 67.3573 22.8561 68.5031 22.8561C69.6345 22.8561 70.5217 23.8304 70.5217 25.162C70.5217 26.4793 69.6345 27.4385 68.5031 27.4385ZM70.4071 22.2117H70.3503C69.9778 21.7682 69.2621 21.3664 68.3601 21.3664C66.4692 21.3664 64.7368 23.0278 64.7368 25.162C64.7368 27.2811 66.4692 28.9282 68.3601 28.9282C69.2621 28.9282 69.9778 28.5273 70.3503 28.0685H70.4071V28.6126C70.4071 30.0597 69.6345 30.8323 68.3885 30.8323C67.3716 30.8323 66.7414 30.1024 66.4835 29.4864L65.0374 30.0883C65.4524 31.0908 66.5556 32.322 68.3885 32.322C70.336 32.322 71.9831 31.1761 71.9831 28.3841V21.5958H70.4071V22.2117ZM73.1279 28.6988H74.7893V17.586H73.1279V28.6988ZM77.2382 25.033C77.1955 23.5717 78.3698 22.8277 79.2141 22.8277C79.8737 22.8277 80.4319 23.1567 80.6177 23.6295L77.2382 25.033ZM82.3937 23.7727C82.0781 22.9273 81.1191 21.3664 79.1573 21.3664C77.2098 21.3664 75.592 22.8989 75.592 25.1477C75.592 27.2668 77.1955 28.9282 79.343 28.9282C81.0763 28.9282 82.0781 27.8686 82.4942 27.2527L81.2053 26.393C80.775 27.0233 80.1884 27.4385 79.343 27.4385C78.4986 27.4385 77.8969 27.0517 77.5102 26.2936L82.5654 24.202L82.3937 23.7727ZM42.12 22.5273V24.1308H45.9574C45.8426 25.033 45.5422 25.6918 45.0843 26.1495C44.5254 26.7086 43.6516 27.3236 42.12 27.3236C39.7564 27.3236 37.9094 25.4198 37.9094 23.0562C37.9094 20.6935 39.7564 18.7895 42.12 18.7895C43.3947 18.7895 44.3253 19.2899 45.0124 19.9343L46.1439 18.8038C45.1841 17.8873 43.9101 17.1851 42.12 17.1851C38.8835 17.1851 36.1627 19.8207 36.1627 23.0562C36.1627 26.2936 38.8835 28.9282 42.12 28.9282C43.8667 28.9282 45.1841 28.3548 46.215 27.2811C47.2746 26.2215 47.6045 24.7327 47.6045 23.5291C47.6045 23.1567 47.5759 22.8134 47.5181 22.5273H42.12ZM51.9671 27.4385C50.8222 27.4385 49.8338 26.4935 49.8338 25.1477C49.8338 23.7868 50.8222 22.8561 51.9671 22.8561C53.1128 22.8561 54.1012 23.7868 54.1012 25.1477C54.1012 26.4935 53.1128 27.4385 51.9671 27.4385ZM51.9671 21.3664C49.8763 21.3664 48.1724 22.9566 48.1724 25.1477C48.1724 27.3236 49.8763 28.9282 51.9671 28.9282C54.0578 28.9282 55.7627 27.3236 55.7627 25.1477C55.7627 22.9566 54.0578 21.3664 51.9671 21.3664ZM60.2461 27.4385C59.1004 27.4385 58.1119 26.4935 58.1119 25.1477C58.1119 23.7868 59.1004 22.8561 60.2461 22.8561C61.3921 22.8561 62.3796 23.7868 62.3796 25.1477C62.3796 26.4935 61.3921 27.4385 60.2461 27.4385ZM60.2461 21.3664C58.1556 21.3664 56.4514 22.9566 56.4514 25.1477C56.4514 27.3236 58.1556 28.9282 60.2461 28.9282C62.3368 28.9282 64.0408 27.3236 64.0408 25.1477C64.0408 22.9566 62.3368 21.3664 60.2461 21.3664Z" fill="white"/>
<path d="M18.0962 19.2979L8.6322 29.3425C8.63308 29.3441 8.63308 29.3469 8.63395 29.3486C8.92462 30.4393 9.92018 31.242 11.1024 31.242C11.5753 31.242 12.0188 31.114 12.3993 30.89L12.4295 30.8722L23.082 24.7254L18.0962 19.2979Z" fill="#EB3131"/>
<path d="M27.6702 17.5875L27.6615 17.5813L23.0623 14.9155L17.881 19.5262L23.0809 24.7245L27.6552 22.0854C28.4569 21.6515 29.0019 20.8063 29.0019 19.832C29.0019 18.8631 28.4649 18.0221 27.6702 17.5875Z" fill="#F6B60B"/>
<path d="M8.63199 10.2785C8.57511 10.4882 8.54492 10.7087 8.54492 10.9362V28.6856C8.54492 28.913 8.57511 29.1336 8.63293 29.3425L18.4213 19.5549L8.63199 10.2785Z" fill="#5778C5"/>
<path d="M18.166 19.8108L23.0638 14.9138L12.4239 8.74497C12.0372 8.51296 11.5856 8.37958 11.1029 8.37958C9.92068 8.37958 8.9234 9.1841 8.63271 10.2756C8.63271 10.2765 8.63184 10.2775 8.63184 10.2784L18.166 19.8108Z" fill="#3BAD49"/>
<path d="M38.5701 12.9019C39.1993 12.9019 39.6878 12.7278 40.0358 12.3799C40.3837 12.032 40.5576 11.5513 40.5576 10.9375C40.5576 10.3243 40.3837 9.84339 40.0358 9.49546C39.6878 9.14735 39.1993 8.9733 38.5701 8.9733H37.6731V12.9019H38.5701ZM36.8225 8.16915H38.5933C39.1657 8.16915 39.6646 8.28506 40.0898 8.51707C40.5152 8.74908 40.8425 9.07528 41.0719 9.49546C41.3013 9.91583 41.4159 10.3962 41.4159 10.9375C41.4159 11.479 41.3013 11.9599 41.0719 12.3799C40.8425 12.8003 40.5152 13.1263 40.0898 13.3583C39.6646 13.5903 39.1657 13.7062 38.5933 13.7062H36.8225V8.16915Z" fill="white"/>
<path d="M42.522 8.16915H43.3726V13.7062H42.522V8.16915Z" fill="white"/>
<path d="M45.1512 13.4278C44.7851 13.1597 44.5298 12.7834 44.3857 12.2987L45.1898 11.974C45.2723 12.2833 45.4192 12.536 45.6306 12.7319C45.842 12.9279 46.0973 13.0258 46.3963 13.0258C46.6746 13.0258 46.9107 12.9535 47.1039 12.809C47.2973 12.6649 47.3939 12.4663 47.3939 12.2137C47.3939 11.9817 47.3088 11.7898 47.1386 11.6375C46.9685 11.4855 46.6746 11.3373 46.257 11.1929L45.9091 11.0692C45.5327 10.9351 45.2195 10.7482 44.9693 10.5084C44.7195 10.2688 44.5945 9.95039 44.5945 9.55342C44.5945 9.28036 44.6678 9.02754 44.8148 8.79553C44.9617 8.56352 45.1679 8.38055 45.4334 8.24643C45.699 8.1125 45.9992 8.04544 46.3345 8.04544C46.8139 8.04544 47.1979 8.16265 47.4867 8.39726C47.7754 8.63188 47.9714 8.89603 48.0745 9.1899L47.3088 9.5146C47.2573 9.32921 47.149 9.16946 46.9841 9.03516C46.8189 8.90141 46.6051 8.83417 46.3421 8.83417C46.0896 8.83417 45.8755 8.90141 45.7003 9.03516C45.5251 9.16946 45.4374 9.33962 45.4374 9.54581C45.4374 9.73658 45.516 9.89504 45.6732 10.0214C45.8303 10.1477 46.074 10.2675 46.4039 10.381L46.7597 10.5047C47.2341 10.6696 47.5999 10.8835 47.8579 11.1465C48.1157 11.4095 48.2444 11.76 48.2444 12.1983C48.2444 12.5592 48.153 12.8622 47.9701 13.1068C47.7869 13.3518 47.5525 13.5335 47.2664 13.6522C46.9802 13.7707 46.6874 13.83 46.3885 13.83C45.9295 13.83 45.5173 13.6958 45.1512 13.4278Z" fill="white"/>
<path d="M51.2839 10.7521C51.5673 10.7521 51.7952 10.6631 51.9682 10.4852C52.1409 10.3074 52.2273 10.0999 52.2273 9.86289C52.2273 9.62568 52.1409 9.41819 51.9682 9.24023C51.7952 9.06246 51.5673 8.9733 51.2839 8.9733H50.2087V10.7521H51.2839ZM49.3581 8.16915H51.2606C51.5905 8.16915 51.8933 8.24141 52.1692 8.38556C52.445 8.53008 52.664 8.73125 52.8266 8.9889C52.9889 9.24673 53.0703 9.53782 53.0703 9.86289C53.0703 10.1876 52.9889 10.4789 52.8266 10.7365C52.664 10.9943 52.445 11.1955 52.1692 11.3399C51.8933 11.4842 51.5905 11.5565 51.2606 11.5565H50.2087V13.7062H49.3581V8.16915Z" fill="white"/>
<path d="M57.6753 12.7589C57.9819 12.5809 58.2244 12.3335 58.4021 12.0164C58.5801 11.6993 58.6689 11.3399 58.6689 10.9375C58.6689 10.5355 58.5801 10.1759 58.4021 9.85881C58.2244 9.54191 57.9819 9.29429 57.6753 9.11652C57.3684 8.93856 57.0294 8.84959 56.6582 8.84959C56.2871 8.84959 55.9481 8.93856 55.6414 9.11652C55.3345 9.29429 55.0923 9.54191 54.9143 9.85881C54.7365 10.1759 54.6476 10.5355 54.6476 10.9375C54.6476 11.3399 54.7365 11.6993 54.9143 12.0164C55.0923 12.3335 55.3345 12.5809 55.6414 12.7589C55.9481 12.9366 56.2871 13.0258 56.6582 13.0258C57.0294 13.0258 57.3684 12.9366 57.6753 12.7589ZM55.1967 13.4434C54.7585 13.1856 54.4143 12.8361 54.1642 12.3953C53.9142 11.9545 53.7892 11.4688 53.7892 10.9375C53.7892 10.4068 53.9142 9.92067 54.1642 9.48005C54.4143 9.03925 54.7585 8.69002 55.1967 8.432C55.6347 8.17435 56.1219 8.04544 56.6582 8.04544C57.1945 8.04544 57.6803 8.17435 58.1161 8.432C58.5517 8.69002 58.8944 9.03925 59.1446 9.48005C59.3946 9.92067 59.5195 10.4068 59.5195 10.9375C59.5195 11.4688 59.3946 11.9545 59.1446 12.3953C58.8944 12.8361 58.5517 13.1856 58.1161 13.4434C57.6803 13.701 57.1945 13.83 56.6582 13.83C56.1219 13.83 55.6347 13.701 55.1967 13.4434Z" fill="white"/>
<path d="M60.618 8.16909H61.6233L64.1288 12.2368H64.1753L64.1288 11.1696V8.16909H64.9718V13.7062H64.0902L61.461 9.42964H61.4145L61.461 10.4966V13.7062H60.618V8.16909Z" fill="white"/>
<path d="M66.3715 8.16909H67.222V13.7062H66.3715V8.16909Z" fill="white"/>
<path d="M70.7797 12.9174C71.0476 12.9174 71.2629 12.8361 71.4252 12.6737C71.5876 12.5114 71.6689 12.3167 71.6689 12.0899C71.6689 11.8631 71.5852 11.6671 71.4176 11.5022C71.2501 11.3372 71.0271 11.2547 70.7487 11.2547H69.4649V12.9174H70.7797ZM70.6482 10.4966C70.9058 10.4966 71.1122 10.4182 71.2668 10.2609C71.4215 10.1038 71.4988 9.92209 71.4988 9.7159C71.4988 9.50952 71.4226 9.33045 71.2707 9.17831C71.1185 9.02618 70.9213 8.95002 70.679 8.95002H69.4649V10.4966H70.6482ZM68.6141 8.16909H70.6868C70.9807 8.16909 71.2538 8.23354 71.5066 8.36228C71.759 8.49138 71.9589 8.66785 72.1058 8.89224C72.2528 9.11646 72.3263 9.36519 72.3263 9.63825C72.3263 9.91169 72.258 10.15 72.1213 10.3538C71.9847 10.5576 71.8031 10.7132 71.5761 10.8217V10.8602C71.8649 10.9582 72.0943 11.1208 72.2645 11.3476C72.4344 11.5744 72.5195 11.8425 72.5195 12.1517C72.5195 12.456 72.4409 12.7254 72.2836 12.9598C72.1265 13.1946 71.9151 13.3774 71.6494 13.5089C71.384 13.6404 71.094 13.7062 70.7797 13.7062H68.6141V8.16909Z" fill="white"/>
<path d="M73.6407 8.16909H74.4913V12.9018H76.8731V13.7062H73.6407V8.16909Z" fill="white"/>
<path d="M77.7705 8.16909H81.1268V8.97324H78.6211V10.5355H80.8792V11.3398H78.6211V12.9018H81.1268V13.7062H77.7705V8.16909Z" fill="white"/>
<path d="M83.9955 8.16909H87.352V8.97324H84.8461V10.5355H87.1044V11.3398H84.8461V12.9018H87.352V13.7062H83.9955V8.16909Z" fill="white"/>
<path d="M88.5427 8.16909H89.5481L92.0536 12.2368H92.1L92.0536 11.1696V8.16909H92.8965V13.7062H92.0149L89.3857 9.42964H89.3393L89.3857 10.4966V13.7062H88.5427V8.16909Z" fill="white"/>
</svg>
