 <svg  version="1.0" xmlns="http://www.w3.org/2000/svg"  width="300.000000pt" height="300.000000pt" viewBox="0 0 300.000000 300.000000"  preserveAspectRatio="xMidYMid meet">  <g transform="translate(0.000000,300.000000) scale(0.100000,-0.100000)" fill="#165017" stroke="none"> <path d="M1360 2889 c-41 -13 -67 -34 -86 -71 -11 -21 -24 -29 -56 -34 -76 -13 -93 -50 -104 -229 -4 -60 -15 -138 -24 -172 -15 -55 -15 -64 -3 -75 19 -16 83 -13 94 4 6 9 9 7 9 -9 0 -13 -6 -23 -12 -23 -7 0 -40 -18 -73 -40 -33 -22 -67 -40 -76 -40 -20 0 -29 -20 -29 -61 0 -16 -4 -29 -10 -29 -5 0 -20 -19 -33 -42 -20 -35 -25 -57 -25 -119 0 -42 -2 -98 -6 -125 -6 -48 -5 -50 31 -77 21 -16 58 -34 82 -40 l43 -12 -6 -60 c-17 -152 -18 -156 -57 -202 -22 -24 -39 -49 -39 -54 0 -20 27 -74 44 -89 16 -12 20 -11 37 10 l20 25 -7 -37 c-10 -62 9 -43 40 37 20 52 27 85 23 108 -3 19 -2 49 2 68 l7 34 7 -48 c7 -52 28 -97 63 -140 16 -19 22 -36 19 -55 -52 -293 -86 -421 -140 -534 -27 -55 -51 -123 -60 -168 -7 -41 -26 -140 -40 -220 -29 -159 -35 -175 -61 -175 -15 0 -23 -17 -38 -84 -28 -114 -34 -111 206 -111 155 0 193 3 223 17 56 27 42 73 -22 73 -19 0 -48 6 -66 13 -40 17 -99 66 -92 77 3 5 -4 11 -15 15 -31 10 -25 55 26 200 25 72 61 177 81 235 20 59 50 125 69 152 19 25 43 70 53 100 11 29 35 87 54 128 l34 75 70 -106 c67 -103 78 -129 103 -253 19 -94 45 -142 151 -284 55 -73 99 -138 96 -145 -2 -6 4 -23 13 -37 10 -14 27 -46 38 -72 25 -57 43 -60 103 -22 64 40 186 142 209 174 36 50 52 98 40 120 -15 28 -27 25 -71 -15 -38 -34 -42 -35 -117 -35 -53 0 -72 3 -62 10 12 8 13 10 1 10 -8 0 -22 -7 -32 -16 -16 -15 -20 -13 -49 28 -36 49 -79 139 -121 251 -25 67 -29 92 -29 180 0 93 -3 108 -30 166 -17 35 -43 100 -59 145 -42 117 -68 183 -101 251 -46 96 -45 130 6 139 26 5 34 11 30 24 -17 63 -27 124 -22 129 4 4 25 -12 49 -34 23 -22 87 -76 142 -118 63 -48 107 -91 119 -114 26 -50 91 -112 113 -107 60 13 64 17 57 55 -10 55 -19 66 -76 99 -58 33 -210 178 -332 316 l-78 89 4 61 c2 33 10 82 18 107 17 58 10 81 -45 162 -25 36 -59 89 -75 118 l-31 51 16 54 c16 54 16 54 56 54 66 0 79 12 79 73 0 29 5 58 12 65 9 9 7 17 -10 34 -11 13 -25 43 -31 67 -11 49 -34 85 -72 112 -30 22 -122 32 -169 18z m-126 -165 c9 -3 16 -14 16 -23 0 -9 7 -29 15 -45 20 -38 19 -43 -6 -20 -12 10 -28 33 -35 51 -20 46 -19 48 10 37z m56 -189 c1 -20 1 -20 15 -1 8 11 17 17 21 14 3 -4 -3 -15 -13 -25 -10 -10 -26 -31 -36 -47 -26 -40 -32 -26 -17 44 9 40 16 57 21 48 5 -7 9 -22 9 -33z m-135 -195 c-3 -5 -12 -10 -18 -10 -7 0 -6 4 3 10 19 12 23 12 15 0z m51 -598 c-18 -16 -18 -16 -6 6 6 13 14 21 18 18 3 -4 -2 -14 -12 -24z m862 -357 c-3 -3 -9 2 -12 12 -6 14 -5 15 5 6 7 -7 10 -15 7 -18z m-33 4 c11 -17 -1 -21 -15 -4 -8 9 -8 15 -2 15 6 0 14 -5 17 -11z"/> <path d="M1138 213 c6 -2 18 -2 25 0 6 3 1 5 -13 5 -14 0 -19 -2 -12 -5z"/> </g> </svg> 