 <svg  version="1.0" xmlns="http://www.w3.org/2000/svg"  width="300.000000pt" height="400.000000pt" viewBox="0 0 300.000000 400.000000"  preserveAspectRatio="xMidYMid meet">  <g transform="translate(0.000000,400.000000) scale(0.100000,-0.100000)" fill="#165017" stroke="none"> <path d="M1228 3976 c-32 -14 -69 -45 -90 -75 -12 -17 -32 -25 -89 -33 -90 -13 -118 -37 -83 -72 11 -11 35 -16 79 -16 35 0 66 -4 70 -9 3 -5 -9 -20 -26 -34 -27 -21 -30 -27 -20 -46 7 -11 20 -21 30 -21 16 0 20 -10 25 -57 15 -161 15 -160 49 -173 66 -24 83 -36 104 -78 24 -49 22 -97 -7 -147 -31 -51 -90 -301 -90 -379 l-1 -71 -57 -61 -57 -61 -79 -6 c-43 -3 -83 -10 -89 -16 -16 -16 11 -88 55 -146 21 -27 38 -52 38 -55 0 -11 -104 -75 -129 -80 -30 -6 -63 -62 -57 -97 2 -13 -3 -31 -10 -40 -17 -22 -17 -103 -1 -123 63 -80 135 -78 166 3 10 25 9 29 -9 34 -16 4 -19 11 -14 27 23 75 51 97 153 117 51 10 64 10 71 -1 11 -17 18 -87 26 -246 6 -119 5 -134 -14 -170 -32 -62 -55 -153 -57 -219 0 -36 -10 -84 -23 -119 -14 -35 -21 -70 -17 -83 4 -16 -1 -33 -14 -49 -39 -50 -81 -298 -61 -360 10 -29 8 -46 -9 -102 -11 -37 -25 -124 -30 -193 -16 -199 -50 -316 -107 -372 -55 -55 -108 -79 -187 -83 -39 -1 -76 -4 -82 -4 -5 -1 -31 1 -57 5 -41 7 -52 4 -92 -21 -49 -31 -55 -44 -31 -64 24 -20 167 -80 191 -80 11 0 47 -13 80 -29 104 -52 270 -79 313 -52 9 6 15 33 17 84 3 99 49 234 138 407 73 144 122 272 132 351 6 44 9 49 33 49 36 0 46 9 61 52 12 32 11 42 -5 78 -18 40 -18 41 2 78 11 20 25 56 33 78 7 24 43 78 81 125 38 45 69 86 69 91 0 4 6 8 14 8 20 0 86 -109 86 -142 0 -39 27 -105 66 -160 18 -26 44 -73 57 -105 20 -47 34 -64 73 -90 27 -18 58 -44 70 -59 14 -17 34 -27 62 -31 29 -4 43 -11 48 -25 3 -11 35 -52 71 -91 140 -155 203 -264 203 -352 0 -75 -22 -112 -75 -127 -22 -7 -55 -24 -73 -40 -18 -15 -43 -28 -55 -28 -13 0 -32 -7 -43 -15 -10 -8 -29 -15 -40 -15 -17 0 -23 -8 -27 -32 -2 -18 0 -36 6 -39 26 -17 245 -20 351 -5 60 9 135 16 167 16 73 0 109 13 109 40 0 17 -6 20 -52 20 l-52 0 32 29 c40 37 41 69 3 124 -68 100 -165 323 -217 502 -19 66 -46 137 -60 157 -13 21 -24 45 -24 54 0 9 -9 27 -20 41 -11 14 -20 33 -20 42 0 10 -13 30 -30 46 -24 23 -30 37 -30 72 0 60 -20 104 -77 164 l-48 51 -1 107 c0 77 -5 116 -17 143 -23 51 -22 85 4 93 19 6 20 12 14 88 -7 80 -27 195 -40 230 -4 10 -3 17 4 17 6 0 11 -8 11 -17 0 -10 16 -49 35 -87 19 -37 35 -78 35 -90 0 -29 64 -217 86 -256 10 -16 22 -30 26 -30 12 0 10 28 -2 35 -27 17 -90 184 -90 239 0 17 -12 58 -25 91 -30 71 -29 69 -9 61 9 -4 27 1 40 9 13 9 24 12 24 7 0 -5 13 -28 29 -53 16 -24 33 -57 37 -74 4 -16 15 -42 25 -56 10 -14 23 -47 30 -72 12 -49 23 -65 34 -47 6 10 -22 82 -46 120 -5 8 -16 31 -24 50 -8 19 -24 51 -34 70 -10 20 -24 55 -30 78 -11 38 -10 45 9 70 99 125 150 218 150 272 0 22 16 27 23 8 3 -7 6 -2 6 12 1 14 -6 35 -14 48 -14 19 -14 38 -6 139 8 93 8 132 -3 183 -28 132 -37 154 -74 185 -77 64 -142 135 -147 162 -13 63 -27 78 -79 81 -41 3 -53 -1 -75 -22 -34 -32 -73 -25 -103 18 -56 80 -114 140 -158 159 -25 11 -62 31 -82 44 l-38 23 0 71 c0 57 5 78 25 114 34 58 42 127 21 198 -21 73 -58 109 -133 130 -68 19 -195 21 -235 3z m787 -787 c0 -28 -35 -38 -54 -15 -10 11 -8 17 11 30 29 21 43 16 43 -15z m-831 -521 c-4 -35 -8 -65 -10 -67 -8 -9 -84 20 -84 32 0 13 80 97 93 97 4 0 5 -28 1 -62z m906 -589 c0 -22 -29 -26 -48 -7 -17 17 -15 36 6 40 23 6 42 -10 42 -33z"/> </g> </svg> 